HIERARCHY
ROOT root
{
	OFFSET 0.000000 0.000000 0.000000
	CHANNELS 6 Xposition Yposition Zposition Zrotation Yrotation Xrotation
	JOINT lhip
	{
		OFFSET 0.058581 -0.082280 -0.017664
		CHANNELS 3 Zrotation Yrotation Xrotation
		JOINT lknee
		{
			OFFSET 0.043451 -0.386469 0.008037
			CHANNELS 3 Zrotation Yrotation Xrotation
			JOINT lankle
			{
				OFFSET -0.014790 -0.426874 -0.037428
				CHANNELS 3 Zrotation Yrotation Xrotation
				JOINT ltoe
				{
					OFFSET 0.041054 -0.060286 0.122042
					CHANNELS 3 Zrotation Yrotation Xrotation
					End Site
					{
						OFFSET 0.000000 0.000000 0.000000
					}
				}
			}
		}
	}
	JOINT rhip
	{
		OFFSET -0.060310 -0.090513 -0.013543
		CHANNELS 3 Zrotation Yrotation Xrotation
		JOINT rknee
		{
			OFFSET -0.043257 -0.383688 -0.004843
			CHANNELS 3 Zrotation Yrotation Xrotation
			JOINT rankle
			{
				OFFSET 0.019056 -0.420046 -0.034562
				CHANNELS 3 Zrotation Yrotation Xrotation
				JOINT rtoe
				{
					OFFSET -0.034840 -0.062106 0.130323
					CHANNELS 3 Zrotation Yrotation Xrotation
					End Site
					{
						OFFSET 0.000000 0.000000 0.000000
					}
				}
			}
		}
	}
	JOINT lowerback
	{
		OFFSET 0.004439 0.124404 -0.038385
		CHANNELS 3 Zrotation Yrotation Xrotation
		JOINT upperback
		{
			OFFSET 0.004488 0.137956 0.026820
			CHANNELS 3 Zrotation Yrotation Xrotation
			JOINT chest
			{
				OFFSET -0.002265 0.056032 0.002855
				CHANNELS 3 Zrotation Yrotation Xrotation
				JOINT lowerneck
				{
					OFFSET -0.013390 0.211636 -0.033468
					CHANNELS 3 Zrotation Yrotation Xrotation
					JOINT upperneck
					{
						OFFSET 0.010113 0.088937 0.050410
						CHANNELS 3 Zrotation Yrotation Xrotation
						End Site
						{
							OFFSET 0.000000 0.000000 0.000000
						}
					}
				}
				JOINT lclavicle
				{
					OFFSET 0.071702 0.114000 -0.018898
					CHANNELS 3 Zrotation Yrotation Xrotation
					JOINT lshoulder
					{
						OFFSET 0.122921 0.045205 -0.019046
						CHANNELS 3 Zrotation Yrotation Xrotation
						JOINT lelbow
						{
							OFFSET 0.255332 -0.015649 -0.022946
							CHANNELS 3 Zrotation Yrotation Xrotation
							JOINT lwrist
							{
								OFFSET 0.265709 0.012698 -0.007375
								CHANNELS 3 Zrotation Yrotation Xrotation
								End Site
								{
									OFFSET 0.000000 0.000000 0.000000
								}
							}
						}
					}
				}
				JOINT rclavicle
				{
					OFFSET -0.082954 0.112472 -0.023707
					CHANNELS 3 Zrotation Yrotation Xrotation
					JOINT rshoulder
					{
						OFFSET -0.113228 0.046853 -0.008472
						CHANNELS 3 Zrotation Yrotation Xrotation
						JOINT relbow
						{
							OFFSET -0.260127 -0.014369 -0.031269
							CHANNELS 3 Zrotation Yrotation Xrotation
							JOINT rwrist
							{
								OFFSET -0.269108 0.006794 -0.006027
								CHANNELS 3 Zrotation Yrotation Xrotation
								End Site
								{
									OFFSET 0.000000 0.000000 0.000000
								}
							}
						}
					}
				}
			}
		}
	}
}
MOTION
Frames: 17
Frame Time: 0.033333
1.626023 0.285573 0.986090 -95.666774 1.420648 91.628949 1.017734 0.016867 -2.492871 -2.950300 -10.824043 5.950979 9.447772 11.924908 -14.172407 0.000000 -0.000000 0.000000 3.092554 -2.178940 -2.756768 3.371438 -2.003225 10.900978 -0.245519 -8.856803 -14.788608 0.000000 -0.000000 0.000000 -0.906383 4.292803 -0.361863 1.746358 0.257203 0.716920 0.988419 -0.370697 2.148157 0.749313 -1.877110 6.572196 1.293155 -1.861091 1.492020 -23.645667 -2.528554 5.969476 -63.823624 -1.434694 18.547975 5.521942 -37.512224 35.450198 11.315854 0.928212 -1.242915 20.405648 0.032278 2.193661 63.957403 -4.832227 14.308801 -11.440567 37.046658 22.661214 -9.367178 2.505690 -6.226213 
1.625702 0.285283 0.985028 -95.772942 1.489530 91.365354 1.186543 -0.098130 -2.153043 -3.043839 -10.616554 5.770646 9.118355 11.929523 -14.173820 0.000000 -0.000000 0.000000 3.128551 -2.114300 -2.492710 3.413941 -2.012336 10.931565 -0.249012 -8.890357 -14.997086 0.000000 -0.000000 0.000000 -1.007781 4.550654 -1.254407 2.031551 -0.061193 2.903092 0.795572 -0.052755 1.726569 0.929873 -1.715143 6.041207 1.320640 -3.088512 1.085033 -23.229291 -3.667302 6.448530 -64.343811 -2.064034 18.753425 6.336638 -37.469240 34.632571 11.317983 1.044921 -1.305204 20.371943 0.512373 2.082089 64.150492 -4.645084 14.167669 -11.814410 37.181038 22.344888 -9.516810 2.090556 -6.978691 
1.625054 0.285093 0.983940 -95.764992 1.516838 91.156015 1.252375 -0.068047 -1.955920 -3.042493 -10.513654 5.707744 8.747622 11.758339 -14.188605 0.000000 -0.000000 0.000000 3.136022 -2.180058 -2.209896 3.378839 -2.076883 10.800542 -0.128127 -8.710752 -14.951137 0.000000 -0.000000 0.000000 -0.766546 3.949878 -0.451613 1.813745 -0.536815 3.079821 0.130920 1.023958 0.805259 1.885511 -1.395909 5.182556 1.442689 -3.575101 2.265878 -22.101698 -3.158998 6.104599 -65.185991 -2.312646 18.965992 6.207924 -36.855955 35.031573 10.555137 0.544314 -1.573286 20.926179 -0.054715 1.892502 64.307664 -4.565694 14.510874 -11.827739 36.890537 22.349215 -9.063029 2.343895 -7.102658 
1.624166 0.284420 0.982132 -95.772318 1.628925 91.180223 1.492125 -0.087628 -2.096379 -3.188297 -10.214795 5.802041 8.564180 11.428582 -14.364046 0.000000 -0.000000 0.000000 3.269328 -2.111306 -2.200870 3.338106 -2.205013 10.771119 -0.076007 -8.477420 -14.966966 0.000000 -0.000000 0.000000 -1.076889 3.958969 -0.807799 1.844379 -0.893340 3.544964 -0.202122 2.568763 1.103230 3.268717 -1.856959 4.163435 2.011838 -4.407725 1.955200 -20.338302 -4.417274 6.978571 -67.313138 -3.996351 19.684219 7.389917 -35.404262 34.600773 9.606722 0.053787 -1.789916 21.142349 -1.258615 0.880920 64.689662 -4.700331 14.456630 -11.578256 37.205533 23.425695 -8.070702 2.560867 -8.053433 
1.623549 0.284197 0.982273 -95.809150 1.637013 91.167188 1.488581 -0.084108 -2.037431 -3.199485 -10.173568 5.766913 8.552513 11.397241 -14.475263 0.000000 -0.000000 0.000000 3.295138 -2.032355 -2.130609 3.318582 -2.184336 10.697049 -0.002731 -8.467447 -14.975314 0.000000 -0.000000 0.000000 -1.033276 3.917984 -0.736221 1.789447 -0.896912 3.355684 -0.206924 2.555177 1.133839 3.360429 -1.774719 4.030154 1.889045 -4.517218 2.455500 -20.412081 -4.589373 7.095927 -67.495553 -3.991205 19.565521 7.652452 -34.887451 34.319917 9.406298 -0.181217 -1.472517 21.185480 -1.138433 0.984663 64.928444 -4.658088 14.432975 -11.815608 36.997438 23.182391 -7.989244 2.628267 -8.079624 
1.622843 0.284014 0.982225 -95.851192 1.656258 91.182031 1.502281 -0.028851 -2.027797 -3.231199 -10.129457 5.809226 8.590890 11.327060 -14.607699 0.000000 -0.000000 0.000000 3.319632 -2.000587 -2.088596 3.297588 -2.185993 10.665443 -0.022492 -8.424017 -15.009311 0.000000 -0.000000 0.000000 -1.025290 3.918969 -0.757328 1.797714 -0.941478 3.369671 -0.209516 2.540654 1.175879 3.458892 -1.645890 3.919863 1.807521 -4.519048 2.607543 -20.460807 -4.754499 7.183892 -67.604112 -3.948807 19.530842 7.833249 -34.383636 34.230821 9.427676 -0.282358 -1.212381 21.195373 -1.062852 1.002514 65.111599 -4.615248 14.409415 -11.978297 36.844573 23.053881 -8.004185 2.675746 -8.162988 
1.622165 0.283829 0.982363 -95.927894 1.644029 91.234546 1.467346 0.012283 -1.989799 -3.224784 -10.136158 5.731820 8.580916 11.349012 -14.604000 0.000000 -0.000000 0.000000 3.294429 -1.988549 -2.074970 3.289706 -2.117278 10.612001 0.002376 -8.420979 -14.989352 0.000000 -0.000000 0.000000 -0.896338 3.834424 -0.642128 1.744127 -0.940477 3.205928 -0.230931 2.385373 1.104404 3.343670 -1.508720 3.980804 1.657739 -4.360924 2.790573 -20.589919 -4.516162 7.092573 -67.460507 -3.603401 19.355982 7.761104 -34.253580 34.309810 9.376870 -0.240010 -1.161247 21.121754 -0.962445 1.160466 65.250982 -4.562901 14.463298 -12.036881 36.699210 22.986725 -8.093383 2.631225 -8.029567 
1.621412 0.283597 0.982317 -96.028911 1.665935 91.275543 1.480934 0.068967 -1.946580 -3.255477 -10.088766 5.690796 8.591262 11.357382 -14.682555 0.000000 -0.000000 0.000000 3.290119 -1.968049 -2.053402 3.288919 -2.065890 10.576068 0.007696 -8.398695 -14.994942 0.000000 -0.000000 0.000000 -0.876718 3.810559 -0.644744 1.765299 -0.915277 3.232551 -0.178531 2.257792 1.145758 3.497445 -1.311311 3.989839 1.547421 -3.981400 2.777011 -20.688456 -4.294706 6.875132 -67.385070 -3.327287 19.289743 7.766725 -33.896338 34.357491 9.363153 -0.242845 -1.175449 21.069300 -0.939469 1.157808 65.223146 -4.506459 14.551830 -12.042356 36.586044 22.957561 -8.162250 2.613471 -8.002464 
1.620811 0.283328 0.981972 -96.067451 1.686977 91.332196 1.510430 0.090459 -1.963329 -3.300133 -10.042795 5.679137 8.641411 11.318997 -14.699444 0.000000 -0.000000 0.000000 3.293962 -1.956134 -2.065583 3.295874 -2.040555 10.561532 -0.033869 -8.378635 -14.994197 0.000000 -0.000000 0.000000 -0.978554 3.861419 -0.824984 1.827387 -0.963671 3.362529 -0.166278 2.503538 1.283397 3.750078 -1.406881 3.906310 1.628593 -3.966381 2.554260 -20.434117 -4.547418 7.097026 -67.696409 -3.571355 19.343108 7.988542 -33.415387 34.073200 9.189810 -0.131086 -1.295935 21.099079 -1.132923 0.979517 65.172605 -4.524957 14.516244 -11.965614 36.582653 23.106680 -8.043645 2.586817 -8.178399 
1.620185 0.283027 0.981874 -96.048214 1.691006 91.379366 1.492828 0.095574 -1.992330 -3.319217 -10.056703 5.707996 8.639916 11.346726 -14.767582 0.000000 -0.000000 0.000000 3.281843 -1.944122 -2.080825 3.298063 -2.014780 10.560854 0.013355 -8.395740 -15.011130 0.000000 -0.000000 0.000000 -1.033952 3.855515 -0.805609 1.860455 -1.007164 3.313852 -0.151401 2.611655 1.363133 3.863628 -1.495456 3.773816 1.667080 -4.093937 2.562369 -20.272340 -4.564528 7.131921 -67.863708 -3.560549 19.362982 8.044741 -32.828415 34.113486 9.262857 -0.139623 -1.197951 21.177274 -1.292693 0.789381 65.083583 -4.541339 14.504680 -11.870157 36.454757 23.228401 -8.052632 2.615260 -8.237529 
1.619787 0.282827 0.981801 -96.016312 1.692714 91.395261 1.477593 0.151402 -2.007088 -3.328470 -10.107836 5.746855 8.631267 11.349946 -14.819441 0.000000 -0.000000 0.000000 3.279332 -1.944362 -2.078286 3.285883 -2.009168 10.573982 0.000795 -8.418632 -15.039215 0.000000 -0.000000 0.000000 -1.012333 3.814556 -0.745017 1.881038 -1.069909 3.299593 -0.145649 2.565378 1.350497 3.795111 -1.517936 3.813681 1.648446 -4.157053 2.504028 -20.246050 -4.522470 7.136654 -67.796490 -3.338756 19.319835 7.988655 -32.575643 34.353648 9.379501 -0.162425 -1.164350 21.104045 -1.229168 0.829033 65.147298 -4.477122 14.471991 -11.866211 36.370317 23.261715 -8.158364 2.552872 -8.298076 
1.619434 0.282733 0.981976 -96.019511 1.671128 91.429280 1.434930 0.179778 -1.978379 -3.305116 -10.147233 5.677969 8.605830 11.374172 -14.788928 0.000000 -0.000000 0.000000 3.252780 -1.941767 -2.070289 3.276130 -1.983485 10.536068 0.010911 -8.432383 -15.008722 0.000000 -0.000000 0.000000 -0.876391 3.717110 -0.592580 1.834765 -1.076187 3.161424 -0.149185 2.367786 1.263190 3.582575 -1.423799 3.914434 1.510067 -4.052851 2.607092 -20.407061 -4.231933 6.963615 -67.556120 -2.944730 19.117677 7.856706 -32.610912 34.422854 9.305605 -0.081615 -1.187474 20.994577 -1.056959 1.015598 65.286713 -4.375612 14.516887 -11.950567 36.244364 23.141359 -8.244215 2.470034 -8.133181 
1.619090 0.282567 0.981929 -95.983070 1.702847 91.428139 1.456208 0.192158 -1.934994 -3.313915 -10.168052 5.641429 8.625646 11.400293 -14.835785 0.000000 -0.000000 0.000000 3.269093 -1.946028 -2.020763 3.291985 -1.968632 10.474509 -0.054270 -8.474225 -15.005790 0.000000 -0.000000 0.000000 -0.921951 3.769832 -0.756324 1.883429 -1.093247 3.417688 -0.095305 2.285057 1.274358 3.595121 -1.403225 3.968125 1.577522 -4.093769 2.515114 -20.491883 -4.331562 6.942412 -67.524083 -2.920297 19.014406 8.036432 -32.368450 33.843596 9.080768 0.244564 -1.509979 21.057911 -0.894468 1.061545 65.182287 -4.308774 14.495939 -12.072562 36.218127 22.867608 -8.176808 2.376492 -8.192823 
1.618721 0.282582 0.981980 -95.953902 1.716016 91.483209 1.465853 0.157726 -1.945840 -3.313767 -10.156420 5.585552 8.597137 11.385474 -14.839142 0.000000 -0.000000 0.000000 3.286100 -1.898201 -2.036690 3.302552 -1.935387 10.402293 -0.002988 -8.548547 -14.976121 0.000000 -0.000000 0.000000 -1.035126 3.826193 -0.690525 1.893742 -1.048697 3.143577 -0.130053 2.573204 1.271515 3.972029 -1.609518 3.925053 1.645845 -4.297755 3.095072 -20.346692 -4.546133 7.367452 -67.685810 -3.237092 19.077951 8.305719 -31.804714 33.364013 9.146389 -0.096340 -1.530761 21.429707 -1.233206 0.839289 64.890714 -4.558545 14.513154 -11.952912 36.225036 22.899080 -8.122546 2.605977 -8.256008 
1.618497 0.282681 0.982011 -95.949018 1.707749 91.523594 1.455157 0.187058 -1.974159 -3.313606 -10.142615 5.590060 8.578099 11.347760 -14.883233 0.000000 -0.000000 0.000000 3.274904 -1.900765 -2.065549 3.295919 -1.953534 10.399678 0.069068 -8.518960 -14.990195 0.000000 -0.000000 0.000000 -1.042643 3.804824 -0.416037 1.856441 -1.000753 2.808936 -0.147531 2.626439 1.214167 4.087284 -1.622965 3.898104 1.608001 -4.283546 3.373097 -20.287840 -4.348589 7.378355 -67.664001 -3.212742 19.032759 8.236319 -31.523124 33.455278 9.259504 -0.458828 -1.332443 21.522000 -1.482686 0.720636 64.843218 -4.632227 14.585432 -11.787518 36.238256 23.073168 -8.122768 2.722443 -8.242652 
1.618322 0.282636 0.981620 -95.933186 1.709625 91.539301 1.481958 0.224069 -1.977735 -3.341060 -10.130627 5.592902 8.563225 11.307880 -14.915857 0.000000 -0.000000 0.000000 3.279450 -1.935763 -2.064371 3.281922 -1.982204 10.410473 0.059211 -8.430233 -14.977162 0.000000 -0.000000 0.000000 -1.039462 3.823931 -0.480561 1.858442 -1.053795 3.047202 -0.135604 2.617852 1.311879 3.995279 -1.577163 3.797213 1.681182 -4.217234 2.763665 -20.175636 -4.345391 7.147130 -67.729624 -3.241685 19.011276 8.160046 -31.512658 33.641828 9.229648 -0.397685 -1.361028 21.258210 -1.454232 0.657643 65.146292 -4.417643 14.584385 -11.726001 36.342065 23.289897 -8.111435 2.607634 -8.305711 
1.618212 0.282650 0.981608 -95.909482 1.708902 91.545725 1.481262 0.226295 -1.969826 -3.339635 -10.139676 5.579335 8.553329 11.291201 -14.919754 0.000000 -0.000000 0.000000 3.282187 -1.935440 -2.054537 3.282697 -1.987976 10.394980 0.065531 -8.435117 -14.974634 0.000000 -0.000000 0.000000 -1.032930 3.823202 -0.451158 1.851876 -1.060946 3.046295 -0.139784 2.617811 1.313184 4.000910 -1.551487 3.781066 1.657919 -4.208021 2.789453 -20.180420 -4.363566 7.134642 -67.711338 -3.253790 18.982975 8.170116 -31.493003 33.641860 9.229126 -0.431725 -1.274742 21.257411 -1.426857 0.654484 65.192955 -4.384399 14.586011 -11.760611 36.364694 23.265452 -8.097019 2.622280 -8.245756 
